<?xml version="1.0" encoding="utf-8"?>
<!-- Generator: Adobe Illustrator 19.0.0, SVG Export Plug-In . SVG Version: 6.00 Build 0)  -->
<!DOCTYPE svg PUBLIC "-//W3C//DTD SVG 1.1//EN" "http://www.w3.org/Graphics/SVG/1.1/DTD/svg11.dtd">
<svg version="1.1" id="Layer_1" xmlns="http://www.w3.org/2000/svg" xmlns:xlink="http://www.w3.org/1999/xlink" x="0px" y="0px"
	 width="170.8px" height="125px" viewBox="0 0 170.8 125" style="enable-background:new 0 0 170.8 125;" xml:space="preserve">
<style type="text/css">
	.st0{fill:#FFD61A;}
	.st1{fill:none;}
	.st2{fill:#FFFFFF;}
	.st3{fill:#0BA3BF;}
</style>
<path class="st0" d="M170.8,13.7V51c0,7.5-6.1,13.7-13.7,13.7h-9.5v13.7c0,2-2.3,3-3.8,1.8L125,64.7H83.2c-7.5,0-13.7-6.1-13.7-13.7
	V13.7C69.5,6.1,75.6,0,83.2,0h74C164.7,0,170.8,6.1,170.8,13.7z"/>
<g>
	<polyline class="st1" points="91.5,67.3 91.5,64.7 91.5,44.8 91.5,21.9 91.5,20.4 91.5,18.9 91.5,17 91.5,15.5 91.5,14 91.5,0 	"/>
	<rect x="90" class="st2" width="3" height="67.3"/>
</g>
<g>
	<rect x="84.7" y="15.5" class="st0" width="13.3" height="4.9"/>
	<path class="st2" d="M83.2,14v8h16.3v-8H83.2z M96.5,18.9H86.2v-2h10.3V18.9z"/>
</g>
<g>
	<polyline class="st1" points="120.3,0 120.3,42.8 120.3,44.3 120.3,45.8 120.3,47.7 120.3,49.2 120.3,50.7 120.3,58.7 120.3,60.8 
		120.3,64.7 	"/>
	<rect x="118.8" class="st2" width="3" height="64.7"/>
</g>
<g>
	<rect x="113.5" y="44.3" class="st0" width="13.3" height="4.9"/>
	<path class="st2" d="M112,42.8v8h16.3v-8H112z M125.3,47.7H115v-2h10.3V47.7z"/>
</g>
<g>
	<polyline class="st1" points="149.2,0 149.2,23.7 149.2,25.2 149.2,26.7 149.2,28.6 149.2,30.1 149.2,31.6 149.2,64.7 	"/>
	<polygon class="st2" points="150.7,0 150.7,64.7 147.7,64.7 147.7,67.3 147.7,67.3 147.7,0 	"/>
</g>
<g>
	<rect x="142.3" y="25.2" class="st0" width="13.3" height="4.9"/>
	<path class="st2" d="M140.8,23.7v8h16.3v-8H140.8z M154.2,28.6h-10.3v-2h10.3V28.6z"/>
</g>
<path class="st3" d="M101.3,58v37.3c0,7.5-6.1,13.7-13.7,13.7H45.5l-18.9,15.5c-1.5,1.3-3.8,0.2-3.8-1.8V109h-9.2
	c-7.1,0-13-5.5-13.6-12.5c0-0.4,0-0.8,0-1.2V58c0-7.5,6.1-13.7,13.7-13.7h74C95.2,44.3,101.3,50.4,101.3,58z"/>
<path class="st2" d="M101.3,59.5v3.8L79.5,80.8l-17.2-11L38,93.4L16.7,82.8L0,96.5c0-0.4,0-0.8,0-1.2v-2.6l16.3-13.3l21.2,10.5
	l24.4-23.9l17.4,11.2L101.3,59.5z"/>
<g>
	<circle class="st3" cx="16.3" cy="81.2" r="4.5"/>
	<path class="st2" d="M21.7,78.7c-0.7-1.5-1.9-2.6-3.4-3.1c-1.5-0.6-3.1-0.5-4.6,0.2c-1.5,0.7-2.6,1.9-3.1,3.4
		c-0.6,1.5-0.5,3.2,0.2,4.6c0,0,0,0.1,0,0.1v0c0.4,0.9,1.1,1.7,1.9,2.3c0.4,0.3,0.9,0.6,1.4,0.8c0.7,0.3,1.4,0.4,2.1,0.4
		c1.2,0,2.4-0.4,3.4-1c0.5-0.3,0.9-0.7,1.3-1.2c0.4-0.5,0.7-1,1-1.7c0.1-0.4,0.2-0.7,0.3-1.1C22.4,81,22.3,79.8,21.7,78.7z
		 M19.3,81.2c0,0.4-0.1,0.7-0.2,1.1c-0.2,0.5-0.5,1-1,1.3c-0.8,0.6-1.9,0.8-2.9,0.5c0,0,0,0,0,0c-0.8-0.3-1.4-0.8-1.7-1.6
		c-0.1-0.2-0.2-0.5-0.2-0.7c-0.1-0.5-0.1-1.1,0.1-1.6c0.3-0.8,0.8-1.4,1.6-1.7c0.4-0.2,0.8-0.3,1.3-0.3c0.4,0,0.7,0.1,1.1,0.2
		c0.8,0.3,1.4,0.8,1.7,1.6c0.1,0.3,0.2,0.6,0.2,0.9C19.3,80.9,19.3,81,19.3,81.2z"/>
</g>
<g>
	<circle class="st3" cx="37.8" cy="91.5" r="4.5"/>
	<path class="st2" d="M43.3,89c-0.1-0.2-0.2-0.3-0.2-0.5c-0.5-0.9-1.2-1.6-2.1-2.2c-0.3-0.2-0.7-0.4-1.1-0.5
		c-2.5-0.9-5.2-0.1-6.8,1.8c-0.4,0.5-0.7,1.1-1,1.7c-0.1,0.3-0.2,0.7-0.3,1c-0.5,2.8,1.1,5.7,3.8,6.7c0.7,0.3,1.4,0.4,2.1,0.4
		c0.8,0,1.7-0.2,2.5-0.5c1.5-0.7,2.6-1.9,3.1-3.4S44,90.4,43.3,89z M40.9,91.5c0,0.4-0.1,0.7-0.2,1.1c-0.3,0.8-0.8,1.4-1.6,1.7
		c-0.7,0.3-1.6,0.4-2.3,0.1c-1.1-0.4-1.8-1.4-2-2.5c-0.1-0.5,0-1,0.2-1.4c0.2-0.6,0.6-1,1-1.3c0.5-0.4,1.2-0.6,1.8-0.6
		c0.3,0,0.6,0,0.9,0.1c0.1,0,0.1,0,0.2,0.1c0.8,0.3,1.4,0.8,1.7,1.6c0.1,0.2,0.1,0.4,0.2,0.5C40.8,91,40.9,91.2,40.9,91.5z"/>
</g>
<g>
	<circle class="st3" cx="61.9" cy="68.1" r="4.5"/>
	<path class="st2" d="M67.4,65.6c-0.7-1.5-1.9-2.6-3.4-3.1c-3.1-1.2-6.6,0.4-7.8,3.5c-0.6,1.7-0.4,3.6,0.4,5.1
		c0.5,0.9,1.2,1.6,2.1,2.2c0.3,0.2,0.7,0.4,1.1,0.5c0.7,0.3,1.4,0.4,2.1,0.4c0.9,0,1.7-0.2,2.5-0.5c0.7-0.3,1.3-0.7,1.8-1.3
		c0.6-0.6,1-1.3,1.3-2.1c0.1-0.2,0.1-0.3,0.2-0.5C68.1,68.3,68,66.9,67.4,65.6z M64.9,68.1c0,0.4-0.1,0.7-0.2,1.1
		c-0.2,0.6-0.6,1.1-1.2,1.5c-0.1,0.1-0.3,0.2-0.4,0.2c-0.7,0.3-1.4,0.4-2.1,0.1c-0.1,0-0.1,0-0.2-0.1c-1-0.4-1.7-1.2-1.9-2.1
		c-0.1-0.6-0.1-1.2,0.1-1.8c0.5-1.2,1.6-2,2.8-2c0.4,0,0.7,0.1,1,0.2c0.8,0.3,1.4,0.8,1.7,1.6c0.2,0.3,0.2,0.7,0.3,1
		C64.9,67.9,64.9,68,64.9,68.1z"/>
</g>
<g>
	<circle class="st3" cx="79.1" cy="78.9" r="4.5"/>
	<path class="st2" d="M84.7,76.6c-0.4-0.9-1-1.8-1.8-2.4c-0.5-0.4-1-0.7-1.7-0.9c-1.5-0.6-3.1-0.5-4.6,0.2c-0.5,0.3-1,0.6-1.5,0.9
		c-0.8,0.6-1.3,1.5-1.7,2.4c0,0,0,0,0,0c-0.5,1.5-0.5,3.1,0.2,4.6c0.7,1.5,1.9,2.6,3.4,3.1c0.7,0.3,1.4,0.4,2.1,0.4
		c1.2,0,2.4-0.4,3.4-1.1c1-0.7,1.8-1.7,2.3-2.9C85.3,79.6,85.2,78,84.7,76.6z M82,80c-0.6,1.6-2.3,2.4-3.9,1.8
		c-0.8-0.3-1.4-0.8-1.7-1.6c-0.2-0.5-0.3-1.1-0.3-1.6c0-0.2,0.1-0.5,0.2-0.7c0.3-0.8,0.8-1.4,1.6-1.7c0,0,0,0,0,0
		c0.4-0.2,0.8-0.3,1.2-0.3c0.4,0,0.7,0.1,1.1,0.2c0.1,0,0.1,0.1,0.2,0.1c1,0.4,1.6,1.4,1.7,2.4C82.2,79.1,82.1,79.6,82,80z"/>
</g>
</svg>
