<?xml version="1.0" encoding="utf-8"?>
<!-- Generator: Adobe Illustrator 19.0.0, SVG Export Plug-In . SVG Version: 6.00 Build 0)  -->
<!DOCTYPE svg PUBLIC "-//W3C//DTD SVG 1.1//EN" "http://www.w3.org/Graphics/SVG/1.1/DTD/svg11.dtd">
<svg version="1.1" id="Layer_1" xmlns="http://www.w3.org/2000/svg" xmlns:xlink="http://www.w3.org/1999/xlink" x="0px" y="0px"
	 width="156.5px" height="126.6px" viewBox="0 0 156.5 126.6" style="enable-background:new 0 0 156.5 126.6;" xml:space="preserve"
	>
<style type="text/css">
	.st0{fill:#FFD61A;}
	.st1{fill:#0BA3BF;}
	.st2{fill:none;stroke:#0BA3BF;stroke-width:3;stroke-miterlimit:10;}
	.st3{fill:#FFFFFF;}
	.st4{fill:none;stroke:#0BA3BF;stroke-width:2;stroke-miterlimit:10;}
</style>
<rect x="75.8" y="105.6" class="st0" width="7" height="15.3"/>
<rect x="57.3" y="119.6" class="st0" width="44" height="7"/>
<rect x="12.9" y="40.5" transform="matrix(0.5597 0.8287 -0.8287 0.5597 59.408 -27.9038)" class="st1" width="86" height="3"/>
<rect x="105.8" y="2.9" transform="matrix(0.7651 0.644 -0.644 0.7651 54.3351 -58.4643)" class="st1" width="3" height="84.6"/>
<path class="st2" d="M74.5,24.1"/>
<path class="st0" d="M134.3,109.1H25.8V44.2h108.5V109.1z M32.8,102.1h94.5V51.2H32.8V102.1z"/>
<g>
	<circle class="st3" cx="31.9" cy="6.3" r="4.8"/>
	<path class="st1" d="M31.9,12.6c-0.7,0-1.5-0.1-2.2-0.4C26.4,11,24.8,7.4,26,4.1c1.2-3.3,4.8-4.9,8.1-3.7c1.6,0.6,2.8,1.8,3.5,3.3
		c0.7,1.5,0.8,3.2,0.2,4.8S36,11.3,34.5,12C33.7,12.4,32.8,12.6,31.9,12.6z M31.9,3c-1.3,0-2.6,0.8-3.1,2.1
		c-0.6,1.7,0.2,3.6,1.9,4.2c0.8,0.3,1.7,0.3,2.5-0.1c0.8-0.4,1.4-1,1.7-1.9l0,0c0.6-1.7-0.2-3.6-1.9-4.2C32.7,3.1,32.3,3,31.9,3z"/>
</g>
<g>
	<circle class="st3" cx="134.5" cy="12.9" r="4.8"/>
	<path class="st1" d="M134.5,19.2c-0.7,0-1.5-0.1-2.2-0.4c-1.6-0.6-2.8-1.8-3.5-3.3c-0.7-1.5-0.8-3.2-0.2-4.8s1.8-2.8,3.3-3.5
		c1.5-0.7,3.2-0.8,4.8-0.2c3.3,1.2,4.9,4.8,3.7,8.1l0,0c-0.6,1.6-1.8,2.8-3.3,3.5C136.3,19,135.4,19.2,134.5,19.2z M134.5,9.6
		c-0.5,0-0.9,0.1-1.4,0.3c-0.8,0.4-1.4,1-1.7,1.9s-0.3,1.7,0.1,2.5c0.4,0.8,1,1.4,1.9,1.7s1.7,0.3,2.5-0.1c0.8-0.4,1.4-1,1.7-1.9
		c0.6-1.7-0.2-3.6-1.9-4.2C135.3,9.6,134.9,9.6,134.5,9.6z"/>
</g>
<path class="st4" d="M6.3,50.3"/>
<rect x="3.9" y="62.5" transform="matrix(0.9378 0.3472 -0.3472 0.9378 24.8937 -11.0113)" class="st1" width="78.6" height="3"/>
<g>
	<circle class="st3" cx="6.3" cy="50.3" r="4.8"/>
	<path class="st1" d="M6.3,56.6c-3.5,0-6.3-2.8-6.3-6.3S2.8,44,6.3,44c3.5,0,6.3,2.8,6.3,6.3S9.8,56.6,6.3,56.6z M6.3,47
		C4.5,47,3,48.5,3,50.3s1.5,3.3,3.3,3.3c1.8,0,3.3-1.5,3.3-3.3S8.1,47,6.3,47z"/>
</g>
<rect x="50.4" y="49.3" transform="matrix(0.1024 0.9947 -0.9947 0.1024 119.9422 -31.2514)" class="st1" width="53.8" height="3"/>
<g>
	<circle class="st3" cx="74.5" cy="24.1" r="4.8"/>
	<path class="st1" d="M74.5,30.4c-0.7,0-1.5-0.1-2.2-0.4c-3.3-1.2-4.9-4.8-3.7-8.1c1.2-3.3,4.8-4.9,8.1-3.7c1.6,0.6,2.8,1.8,3.5,3.3
		c0.7,1.5,0.8,3.2,0.2,4.8c-0.6,1.6-1.8,2.8-3.3,3.5C76.3,30.2,75.4,30.4,74.5,30.4z M74.5,20.8c-1.3,0-2.6,0.8-3.1,2.1
		c-0.6,1.7,0.2,3.6,1.9,4.2c0.8,0.3,1.7,0.3,2.5-0.1c0.8-0.4,1.4-1,1.7-1.9l0,0c0.3-0.8,0.3-1.7-0.1-2.5c-0.4-0.8-1-1.4-1.9-1.7
		C75.3,20.8,74.9,20.8,74.5,20.8z"/>
</g>
<rect x="113.6" y="31.7" transform="matrix(0.2618 0.9651 -0.9651 0.2618 150.6982 -60.8377)" class="st1" width="3" height="72.7"/>
<g>
	<circle class="st3" cx="150.2" cy="58.6" r="4.8"/>
	<path class="st1" d="M150.2,64.9c-0.7,0-1.5-0.1-2.2-0.4c-3.3-1.2-4.9-4.8-3.7-8.1c1.2-3.3,4.8-4.9,8.1-3.7
		c1.6,0.6,2.8,1.8,3.5,3.3s0.8,3.2,0.2,4.8l0,0C155.2,63.3,152.7,64.9,150.2,64.9z M150.2,55.3c-1.3,0-2.6,0.8-3.1,2.1
		c-0.6,1.7,0.2,3.6,1.9,4.2c1.7,0.6,3.6-0.2,4.2-1.9v0c0.3-0.8,0.3-1.7-0.1-2.5c-0.4-0.8-1-1.4-1.9-1.7
		C151,55.3,150.6,55.3,150.2,55.3z"/>
</g>
<g>
	<circle class="st3" cx="80" cy="77.6" r="11.9"/>
	<path class="st1" d="M80,91c-7.4,0-13.4-6-13.4-13.4s6-13.4,13.4-13.4s13.4,6,13.4,13.4S87.4,91,80,91z M80,67.2
		c-5.7,0-10.4,4.7-10.4,10.4S74.3,88,80,88s10.4-4.7,10.4-10.4S85.8,67.2,80,67.2z"/>
</g>
<circle class="st1" cx="80" cy="77.6" r="7.9"/>
</svg>
