<?xml version="1.0" encoding="utf-8"?>
<!-- Generator: Adobe Illustrator 19.0.0, SVG Export Plug-In . SVG Version: 6.00 Build 0)  -->
<!DOCTYPE svg PUBLIC "-//W3C//DTD SVG 1.1//EN" "http://www.w3.org/Graphics/SVG/1.1/DTD/svg11.dtd">
<svg version="1.1" id="Layer_1" xmlns="http://www.w3.org/2000/svg" xmlns:xlink="http://www.w3.org/1999/xlink" x="0px" y="0px"
	 width="76.7px" height="96.9px" viewBox="0 0 76.7 96.9" style="enable-background:new 0 0 76.7 96.9;" xml:space="preserve">
<style type="text/css">
	.st0{fill:#0BA3BF;}
	.st1{fill:#FBCD2F;}
</style>
<path class="st0" d="M76.7,34.4c0,11.2-5.9,21-14.8,26.5V24.2h-6v39.7c-2.4,0.8-4.8,1.4-7.4,1.7V31.9h-6v33.6
	c-2.6-0.3-5.1-0.8-7.4-1.7v-20h-6V61c-8.9-5.5-14.8-15.3-14.8-26.5c0-17.3,14-31.2,31.2-31.2C62.7,3.2,76.7,17.2,76.7,34.4z"/>
<path class="st1" d="M45.7,80.1c-12.7,0-25.4-5.3-34.4-15.6C-5.3,45.5-3.4,16.6,15.6,0l4.6,5.3C4.1,19.3,2.5,43.8,16.6,59.9
	C30.6,76,55.1,77.6,71.2,63.6l4.6,5.3C67.2,76.4,56.4,80.1,45.7,80.1z"/>
<rect x="42" y="75.9" class="st1" width="7" height="15.3"/>
<rect x="23.5" y="89.9" class="st1" width="44" height="7"/>
</svg>
