<?xml version="1.0" encoding="utf-8"?>
<!-- Generator: Adobe Illustrator 20.1.0, SVG Export Plug-In . SVG Version: 6.00 Build 0)  -->
<svg version="1.1" id="Layer_1" xmlns="http://www.w3.org/2000/svg" xmlns:xlink="http://www.w3.org/1999/xlink" x="0px" y="0px"
	 width="107.9px" height="123.1px" viewBox="0 0 107.9 123.1" style="enable-background:new 0 0 107.9 123.1;" xml:space="preserve"
	>
<style type="text/css">
	.st0{fill-rule:evenodd;clip-rule:evenodd;fill:#FED438;}
	.st1{fill-rule:evenodd;clip-rule:evenodd;fill:none;stroke:#1EA2BC;stroke-width:6.2581;stroke-miterlimit:10;}
	.st2{fill-rule:evenodd;clip-rule:evenodd;fill:none;stroke:#FED438;stroke-width:3.4014;stroke-miterlimit:10;}
	.st3{fill-rule:evenodd;clip-rule:evenodd;fill:none;stroke:#1EA2BC;stroke-width:6.2581;}
	.st4{fill-rule:evenodd;clip-rule:evenodd;fill:none;stroke:#FBCD2F;stroke-width:3.4014;stroke-miterlimit:10;}
	.st5{fill:#FFFFFF;}
	.st6{font-family:'RobotoSlab-Bold';}
	.st7{font-size:17.3017px;}
</style>
<g>
	<circle class="st0" cx="12.6" cy="29.5" r="12.6"/>
	<circle class="st0" cx="56.6" cy="12.6" r="12.6"/>
	<circle class="st0" cx="95.3" cy="30.2" r="12.6"/>
	<rect x="14.7" y="108.1" class="st1" width="82.6" height="11.9"/>
	<rect x="22.2" y="72.4" class="st1" width="16.5" height="35.7"/>
	<rect x="38.7" y="72.4" class="st1" width="16.5" height="35.7"/>
	<rect x="55.2" y="72.4" class="st1" width="16.5" height="35.7"/>
	<rect x="55.2" y="72.4" class="st1" width="16.5" height="35.7"/>
	<rect x="71.7" y="72.4" class="st1" width="16.5" height="35.7"/>
	<path class="st2" d="M12.6,29.5C13.3,30,56,60.2,56,60.2"/>
	<polygon class="st3" points="97.3,66.4 97.3,72.4 14.7,72.4 14.7,66.4 56,44.6 	"/>
	<circle class="st0" cx="56" cy="60.2" r="5.1"/>
	<line class="st2" x1="56" y1="60.2" x2="95.3" y2="30.2"/>
	<path class="st4" d="M52.9,18.6"/>
	<path class="st4" d="M55.2,27.3"/>
	<line class="st2" x1="56" y1="19.8" x2="56" y2="61.6"/>
	<text transform="matrix(1 0 0 1 7.2086 35.2322)" class="st5 st6 st7">€</text>
	<text transform="matrix(1 0 0 1 51.9157 18.2517)" class="st5 st6 st7">$</text>
	<text transform="matrix(1 0 0 1 90.8893 35.3865)" class="st5 st6 st7">£</text>
</g>
</svg>
