<?xml version="1.0" encoding="utf-8"?>
<!-- Generator: Adobe Illustrator 19.0.0, SVG Export Plug-In . SVG Version: 6.00 Build 0)  -->
<!DOCTYPE svg PUBLIC "-//W3C//DTD SVG 1.1//EN" "http://www.w3.org/Graphics/SVG/1.1/DTD/svg11.dtd">
<svg version="1.1" id="Layer_1" xmlns="http://www.w3.org/2000/svg" xmlns:xlink="http://www.w3.org/1999/xlink" x="0px" y="0px"
	 width="102.2px" height="112.2px" viewBox="0 0 102.2 112.2" style="enable-background:new 0 0 102.2 112.2;" xml:space="preserve"
	>
<style type="text/css">
	.st0{fill:#FFFFFF;}
	.st1{fill:#E7E9E5;}
	.st2{fill:#0BA3BF;}
	.st3{fill:#E4E7E1;}
	.st4{fill:#FBCD2F;}
	.st5{font-family:'Aleo-Bold';}
	.st6{font-size:29.3055px;}
	.st7{font-family:'AdobeGothicStd-Bold-KSCpc-EUC-H';}
	.st8{font-size:23.4016px;}
</style>
<g>
	<rect x="10.8" y="1" class="st0" width="80.7" height="92.3"/>
	<path class="st1" d="M92.5,94.3H9.8V0h82.7V94.3z M11.8,92.3h78.7V2H11.8V92.3z"/>
</g>
<circle class="st2" cx="25.5" cy="15.6" r="5.7"/>
<rect x="21.9" y="29.3" class="st3" width="7.3" height="4.5"/>
<rect x="34.6" y="29.3" class="st3" width="45.7" height="4.5"/>
<rect x="21.9" y="39.2" class="st3" width="7.3" height="4.5"/>
<rect x="34.6" y="39.2" class="st3" width="45.7" height="4.5"/>
<rect x="21.9" y="49" class="st3" width="7.3" height="4.5"/>
<rect x="34.6" y="49" class="st3" width="45.7" height="4.5"/>
<circle class="st4" cx="28.8" cy="75.2" r="28.8"/>
<text transform="matrix(1 0 0 1 8.3646 82.7827)" class="st0 st5 st6">Aa</text>
<circle class="st2" cx="73.4" cy="83.4" r="28.8"/>
<text transform="matrix(1 0 0 1 51.1806 92.3413)" class="st0 st7 st8">薪水</text>
</svg>
