<?xml version="1.0" encoding="UTF-8"?>
<svg width="783px" height="276px" viewBox="0 0 783 276" version="1.1" xmlns="http://www.w3.org/2000/svg" xmlns:xlink="http://www.w3.org/1999/xlink">
    <!-- Generator: Sketch 49.2 (51160) - http://www.bohemiancoding.com/sketch -->
    <title>Slice 1</title>
    <desc>Created with Sketch.</desc>
    <defs>
        <polygon id="path-1" points="0.06 0.727740304 208.237277 0.727740304 208.237277 204.94 0.06 204.94"></polygon>
    </defs>
    <g id="Page-1" stroke="none" stroke-width="1" fill="none" fill-rule="evenodd">
        <g id="iiPay-Logo-Final-No-Tagline">
            <g id="Group-6" transform="translate(0.000000, 71.000000)">
                <mask id="mask-2" fill="white">
                    <use xlink:href="#path-1"></use>
                </mask>
                <g id="Clip-2"></g>
                <path d="M79.241,163.976 L79.241,201.636 C79.254,203.481 77.769,204.987 75.924,205 C75.622,205.002 75.322,204.963 75.031,204.885 C22.466,189.531 -9.257,136.121 2.411,82.616 C4.082,90.311 6.63,97.788 10.007,104.901 C23.042,132.357 47.406,152.761 76.724,160.773 C78.192,161.146 79.225,162.461 79.241,163.976" id="Fill-1" fill="#2396A6" mask="url(#mask-2)"></path>
                <path d="M208.236,104.855 C208.296,151.168 177.715,191.936 133.236,204.839 C131.455,205.319 129.622,204.265 129.142,202.483 C129.063,202.192 129.025,201.892 129.027,201.59 L129.027,163.976 C129.037,162.474 130.048,161.164 131.498,160.773 C160.825,152.751 185.19,132.329 198.214,104.855 C201.635,97.763 204.23,90.301 205.948,82.616 C207.506,89.926 208.273,97.382 208.236,104.855" id="Fill-3" fill="#2396A6" mask="url(#mask-2)"></path>
                <path d="M205.948,82.616 C204.272,90.295 201.723,97.756 198.352,104.855 C173.707,52.883 111.596,30.73 59.625,55.375 C37.918,65.668 20.438,83.149 10.144,104.855 C6.725,97.762 4.131,90.3 2.411,82.616 C14.691,26.449 70.179,-9.128 126.346,3.152 C166.084,11.84 197.122,42.878 205.81,82.616 L205.948,82.616" id="Fill-4" fill="#F6CA25" mask="url(#mask-2)"></path>
                <path d="M79.241,88.336 L79.241,125.95 C79.254,127.795 77.769,129.301 75.924,129.314 C75.622,129.316 75.322,129.278 75.031,129.199 C22.487,113.846 -9.23,60.465 2.411,6.977 C4.082,14.671 6.63,22.148 10.007,29.261 C23.042,56.717 47.406,77.121 76.724,85.133 C78.192,85.507 79.225,86.821 79.241,88.336" id="Fill-5" fill="#2396A6" mask="url(#mask-2)"></path>
            </g>
            <path d="M208.236,100.261 C208.296,146.574 177.715,187.342 133.236,200.245 C131.455,200.725 129.622,199.67 129.142,197.889 C129.063,197.598 129.025,197.298 129.027,196.996 L129.027,159.336 C129.037,157.834 130.048,156.524 131.498,156.133 C160.816,148.121 185.18,127.717 198.214,100.261 C201.639,93.154 204.233,85.677 205.948,77.977 C207.509,85.301 208.276,92.772 208.236,100.261" id="Fill-7" fill="#2396A6"></path>
            <g id="Group-11" transform="translate(2.000000, 0.000000)" fill="#F6CA25">
                <path d="M203.948,77.977 C202.277,85.671 199.729,93.148 196.352,100.261 C183.287,72.774 158.867,52.366 129.498,44.389 C128.048,43.999 127.037,42.688 127.027,41.186 L127.027,3.572 C126.937,1.729 128.358,0.163 130.201,0.074 C130.55,0.057 130.899,0.095 131.236,0.186 C167.888,10.847 195.782,40.689 203.948,77.977" id="Fill-8"></path>
                <path d="M77.241,3.572 L77.241,41.369 C77.231,42.871 76.22,44.182 74.77,44.572 C45.47,52.532 21.094,72.865 8.007,100.261 C4.63,93.148 2.082,85.671 0.411,77.977 C8.553,40.724 36.386,10.89 72.985,0.186 C74.759,-0.322 76.608,0.704 77.116,2.478 C77.218,2.833 77.26,3.203 77.241,3.572" id="Fill-10"></path>
            </g>
            <path d="M289.184,200.898 L289.184,95.652 L311.194,95.652 L311.194,201.264 L289.184,200.898 Z M314.351,63.621 C314.351,71.455 308,77.806 300.166,77.806 C292.331,77.806 285.98,71.455 285.98,63.621 C285.98,55.787 292.331,49.436 300.166,49.436 C308,49.436 314.351,55.787 314.351,63.621 Z" id="Fill-12" fill="#0B0B09"></path>
            <path d="M348.259,200.898 L348.259,95.652 L370.452,95.652 L370.452,201.264 L348.259,200.898 Z M373.426,63.621 C373.419,71.455 367.061,77.8 359.227,77.792 C351.404,77.785 345.063,71.444 345.056,63.621 C345.063,55.787 351.42,49.442 359.255,49.449 C367.078,49.457 373.419,55.797 373.426,63.621 Z" id="Fill-13" fill="#0B0B09"></path>
            <path d="M469.978,130.017 C487.87,130.017 498.532,119.767 498.532,104.438 C498.532,89.109 487.87,79.087 469.978,79.087 L428.429,79.087 L428.429,130.063 L469.978,130.017 Z M469.978,58.404 C501.506,58.404 521.365,77.166 521.365,104.438 C521.365,131.711 501.552,150.929 469.978,150.929 L428.429,150.929 L428.429,201.264 L405.549,201.264 L405.549,58.404 L469.978,58.404 Z" id="Fill-14" fill="#0B0B09"></path>
            <path d="M623.929,148.367 C624.487,128.915 609.171,112.695 589.719,112.137 C589.546,112.132 589.372,112.128 589.198,112.126 C569.796,112.126 554.65,126.174 554.65,148.367 C554.65,170.56 569.796,184.608 589.198,184.608 C608.581,184.416 624.138,168.548 623.946,149.165 C623.944,148.899 623.938,148.633 623.929,148.367 Z M646.26,201.264 L623.929,201.264 L623.929,189.092 C613.792,199.256 599.883,204.743 585.538,204.239 C557.807,204.239 533.098,181.863 533.098,148.367 C533.098,114.871 557.807,92.495 585.538,92.495 C599.89,92.003 613.8,97.507 623.929,107.687 L623.929,95.652 L646.123,95.652 L646.26,201.264 Z" id="Fill-15" fill="#0B0B09"></path>
            <polyline id="Fill-16" fill="#0B0B09" points="719.154 237.506 694.444 237.506 711.695 198.702 665.936 95.332 690.646 95.332 723.684 171.658 757.592 95.332 782.302 95.332 719.154 237.506"></polyline>
        </g>
    </g>
</svg>