<?xml version="1.0" encoding="utf-8"?>
<!-- Generator: Adobe Illustrator 21.0.2, SVG Export Plug-In . SVG Version: 6.00 Build 0)  -->
<svg version="1.1" id="Layer_1" xmlns="http://www.w3.org/2000/svg" xmlns:xlink="http://www.w3.org/1999/xlink" x="0px" y="0px"
	 viewBox="0 0 1000 1000" style="enable-background:new 0 0 1000 1000;" xml:space="preserve">
<style type="text/css">
	.st0{fill:#FFD61A;}
	.st1{fill:#FFFFFF;}
	.st2{fill:#0BA3BF;}
	.st3{fill:#FBCD2F;}
</style>
<g>
	
		<rect x="304.7" y="306.9" transform="matrix(5.129412e-02 -0.9987 0.9987 5.129412e-02 -222.8736 810.3756)" class="st0" width="20.9" height="431.1"/>
	<polygon class="st0" points="568.8,565.7 38.5,284.2 48.2,265.8 492,501.4 285.4,236.9 301.8,224.1 	"/>
	<polygon class="st0" points="520,576.5 520,230.5 540.8,230.5 540.8,490.6 725.2,133.8 743.7,143.4 	"/>
	<polygon class="st0" points="956.3,558.2 492.4,542.7 826.2,357.5 836.3,375.7 568.4,524.4 957,537.4 	"/>
	<rect x="520" y="533.6" class="st0" width="20.9" height="309.9"/>
	<g>
		<circle class="st1" cx="43.3" cy="275" r="32.7"/>
		<path class="st0" d="M43.3,318.2c-23.8,0-43.2-19.4-43.2-43.2s19.4-43.2,43.2-43.2s43.2,19.4,43.2,43.2S67.2,318.2,43.3,318.2z
			 M43.3,252.7C31,252.7,21,262.7,21,275s10,22.3,22.3,22.3s22.3-10,22.3-22.3S55.6,252.7,43.3,252.7z"/>
	</g>
	<g>
		<circle class="st1" cx="293.6" cy="230.5" r="32.7"/>
		<path class="st0" d="M293.6,273.7c-23.8,0-43.2-19.4-43.2-43.2s19.4-43.2,43.2-43.2c23.8,0,43.2,19.4,43.2,43.2
			S317.4,273.7,293.6,273.7z M293.6,208.2c-12.3,0-22.3,10-22.3,22.3s10,22.3,22.3,22.3c12.3,0,22.3-10,22.3-22.3
			S305.9,208.2,293.6,208.2z"/>
	</g>
	<g>
		<circle class="st1" cx="530.4" cy="230.5" r="32.7"/>
		<path class="st0" d="M530.4,273.7c-23.8,0-43.2-19.4-43.2-43.2s19.4-43.2,43.2-43.2c23.8,0,43.2,19.4,43.2,43.2
			S554.2,273.7,530.4,273.7z M530.4,208.2c-12.3,0-22.3,10-22.3,22.3s10,22.3,22.3,22.3c12.3,0,22.3-10,22.3-22.3
			S542.7,208.2,530.4,208.2z"/>
	</g>
	<g>
		<circle class="st1" cx="831.3" cy="366.6" r="32.7"/>
		<path class="st0" d="M831.3,409.8c-23.8,0-43.2-19.4-43.2-43.2s19.4-43.2,43.2-43.2s43.2,19.4,43.2,43.2S855.1,409.8,831.3,409.8z
			 M831.3,344.3c-12.3,0-22.3,10-22.3,22.3c0,12.3,10,22.3,22.3,22.3s22.3-10,22.3-22.3C853.6,354.3,843.6,344.3,831.3,344.3z"/>
	</g>
	<g>
		<circle class="st1" cx="734.4" cy="138.6" r="32.7"/>
		<path class="st0" d="M734.4,181.8c-23.8,0-43.2-19.4-43.2-43.2s19.4-43.2,43.2-43.2s43.2,19.4,43.2,43.2S758.2,181.8,734.4,181.8z
			 M734.4,116.3c-12.3,0-22.3,10-22.3,22.3s10,22.3,22.3,22.3s22.3-10,22.3-22.3S746.7,116.3,734.4,116.3z"/>
	</g>
	<g>
		<circle class="st1" cx="956.7" cy="547.8" r="32.7"/>
		<path class="st0" d="M956.7,591c-23.8,0-43.2-19.4-43.2-43.2s19.4-43.2,43.2-43.2c23.8,0,43.2,19.4,43.2,43.2S980.5,591,956.7,591
			z M956.7,525.5c-12.3,0-22.3,10-22.3,22.3c0,12.3,10,22.3,22.3,22.3c12.3,0,22.3-10,22.3-22.3C979,535.5,969,525.5,956.7,525.5z"
			/>
	</g>
	<g>
		<circle class="st1" cx="99.8" cy="511.4" r="32.7"/>
		<path class="st0" d="M99.8,554.6c-23.8,0-43.2-19.4-43.2-43.2s19.4-43.2,43.2-43.2s43.2,19.4,43.2,43.2S123.6,554.6,99.8,554.6z
			 M99.8,489.1c-12.3,0-22.3,10-22.3,22.3c0,12.3,10,22.3,22.3,22.3s22.3-10,22.3-22.3C122.1,499.1,112.1,489.1,99.8,489.1z"/>
	</g>
	<g>
		<circle class="st1" cx="530.4" cy="843.5" r="52.3"/>
		<path class="st0" d="M530.4,906.2c-34.6,0-62.7-28.1-62.7-62.7s28.1-62.7,62.7-62.7c34.6,0,62.7,28.1,62.7,62.7
			S565,906.2,530.4,906.2z M530.4,801.6c-23.1,0-41.9,18.8-41.9,41.9c0,23.1,18.8,41.9,41.9,41.9c23.1,0,41.9-18.8,41.9-41.9
			C572.2,820.4,553.5,801.6,530.4,801.6z"/>
	</g>
	<g>
		<path class="st2" d="M758.5,603.1c0,45.2-36.7,81.8-81.8,81.8H362.9c-50.5,0-91.5-40.9-91.5-91.4c0-40.1,25.8-74.2,61.8-86.6
			c-0.1-1.6-0.2-3.2-0.2-4.9c0-50.5,41-91.4,91.5-91.4c20.9,0,40.3,7.1,55.7,18.9c18.3-39.6,58.4-67.1,104.8-67.1
			c63.7,0,115.3,51.6,115.3,115.3c0,15.9-3.2,31-9,44.8C729.5,529.4,758.5,562.9,758.5,603.1z"/>
	</g>
	<circle class="st3" cx="530.4" cy="843.5" r="20.7"/>
</g>
</svg>
