<svg id="Layer_1" data-name="Layer 1" xmlns="http://www.w3.org/2000/svg" width="784" height="278" viewBox="0 0 784 278"><defs><style>.cls-1{fill:#09a0b6;}.cls-2{fill:#fcce08;}.cls-3{fill:#010101;}</style></defs><title>m_iipay_logo</title><path id="_Path_" data-name=" Path " class="cls-1" d="M80.09,235.95v37.66a3.34,3.34,0,0,1-4.21,3.25A104.24,104.24,0,0,1,3.26,154.59a102.82,102.82,0,0,0,7.6,22.28,104.29,104.29,0,0,0,66.72,55.87A3.34,3.34,0,0,1,80.09,235.95Z"/><path id="_Path_2" data-name=" Path 2" class="cls-1" d="M209.08,176.83a104,104,0,0,1-75,100,3.34,3.34,0,0,1-4.21-3.25V235.95a3.34,3.34,0,0,1,2.47-3.2,104.29,104.29,0,0,0,66.72-55.92,102.82,102.82,0,0,0,7.73-22.24A104.15,104.15,0,0,1,209.08,176.83Z"/><path id="_Path_3" data-name=" Path 3" class="cls-2" d="M206.8,154.59a103,103,0,0,1-7.6,22.24,104.15,104.15,0,0,0-188.21,0,103,103,0,0,1-7.73-22.24,104.1,104.1,0,0,1,203.4,0Z"/><path id="_Path_4" data-name=" Path 4" class="cls-1" d="M80.09,160.31v37.61a3.34,3.34,0,0,1-4.21,3.25A104.24,104.24,0,0,1,3.26,78.95a102.82,102.82,0,0,0,7.6,22.28,104.29,104.29,0,0,0,66.72,55.87A3.34,3.34,0,0,1,80.09,160.31Z"/><path id="_Path_5" data-name=" Path 5" class="cls-1" d="M209.08,101.23a104,104,0,0,1-75,100,3.34,3.34,0,0,1-4.21-3.25V160.31a3.34,3.34,0,0,1,2.47-3.2,104.29,104.29,0,0,0,66.72-55.87,102.82,102.82,0,0,0,7.73-22.28A104.15,104.15,0,0,1,209.08,101.23Z"/><path id="_Path_6" data-name=" Path 6" class="cls-2" d="M206.8,78.95a102.82,102.82,0,0,1-7.6,22.28,104.29,104.29,0,0,0-66.85-55.87,3.34,3.34,0,0,1-2.47-3.2V4.54a3.34,3.34,0,0,1,4.21-3.39A104.24,104.24,0,0,1,206.8,78.95Z"/><path id="_Path_7" data-name=" Path 7" class="cls-2" d="M80.09,4.54v37.8a3.34,3.34,0,0,1-2.47,3.2,104.29,104.29,0,0,0-66.76,55.69,102.82,102.82,0,0,1-7.6-22.28A104.24,104.24,0,0,1,75.83,1.16a3.34,3.34,0,0,1,4.26,3.39Z"/><path class="cls-3" d="M315.2,59.15A14.19,14.19,0,1,1,301,45,14.19,14.19,0,0,1,315.2,59.15ZM290,196.43V91.18h22V196.79Z"/><path class="cls-3" d="M374.28,59.15A14.19,14.19,0,1,1,360.1,45,14.19,14.19,0,0,1,374.28,59.15ZM349.11,196.43V91.18H371.3V196.79Z"/><path class="cls-3" d="M470.83,53.93c31.53,0,51.39,18.76,51.39,46s-19.81,46.49-51.39,46.49H429.28v50.34H406.4V53.93Zm0,71.61c17.89,0,28.55-10.25,28.55-25.58s-10.66-25.35-28.55-25.35H429.28v51Z"/><path class="cls-3" d="M647.11,196.79H624.78V184.62a51.66,51.66,0,0,1-38.39,15.15c-27.73,0-52.44-22.38-52.44-55.87S558.66,88,586.39,88a51.66,51.66,0,0,1,38.39,15.19v-12H647Zm-22.33-52.9a35.23,35.23,0,0,0-34.21-36.23H590c-19.4,0-34.55,14-34.55,36.24s15.15,36.24,34.55,36.24a35.1,35.1,0,0,0,34.75-35.44Q624.79,144.3,624.78,143.9Z"/><path class="cls-3" d="M720,233H695.29l17.25-38.8L666.79,90.86H691.5l33,76.33,33.91-76.33h24.71Z"/></svg>