<svg xmlns="http://www.w3.org/2000/svg" xmlns:xlink="http://www.w3.org/1999/xlink" preserveAspectRatio="xMidYMid" width="1469" height="344" viewBox="0 0 1469 344">
  <defs>
    <style>
      .cls-1 {
        fill: #f5f6f6;
        fill-rule: evenodd;
      }
    </style>
  </defs>
  <path d="M1325.035,1133.899 C1251.077,1182.077 1162.889,1210.094 1068.289,1210.094 C968.604,1210.094 876.034,1178.992 799.737,1125.964 C795.759,1125.668 791.795,1125.320 787.850,1124.907 C728.230,1155.690 660.645,1173.084 589.081,1173.084 C514.003,1173.084 443.303,1153.944 381.586,1120.279 C370.996,1121.162 360.292,1121.636 349.479,1121.636 C137.742,1121.636 -34.520,949.051 -34.520,736.906 C-34.520,611.601 25.605,500.132 118.438,429.842 C152.695,200.413 350.696,23.891 589.081,23.891 C748.229,23.891 889.372,102.573 975.817,223.143 C997.447,234.700 1017.573,248.718 1035.824,264.827 C1046.552,264.093 1057.377,263.718 1068.289,263.718 C1162.889,263.718 1251.077,291.735 1325.035,339.914 C1535.805,348.940 1704.503,523.551 1704.503,736.906 C1704.503,950.261 1535.805,1124.873 1325.035,1133.899 ZM1068.289,1206.066 C1159.672,1206.066 1245.022,1179.696 1317.167,1134.161 C1314.083,1134.232 1310.991,1134.273 1307.891,1134.273 C1215.266,1134.273 1129.959,1102.292 1062.382,1048.779 C997.245,1097.897 916.301,1127.048 828.683,1127.048 C821.618,1127.048 814.597,1126.853 807.624,1126.475 C882.181,1176.717 971.877,1206.066 1068.289,1206.066 ZM159.636,696.530 C224.217,838.122 356.560,942.439 514.864,967.602 C467.381,902.942 439.279,823.157 439.279,736.906 C439.279,732.384 439.381,727.886 439.535,723.401 C411.713,734.735 381.314,740.997 349.479,740.997 C275.700,740.997 209.606,707.440 165.572,654.770 C162.930,668.471 160.949,682.405 159.636,696.530 ZM162.276,650.737 C146.398,630.893 133.600,608.476 124.593,584.227 C131.135,620.836 141.900,655.996 156.357,689.184 C157.778,676.194 159.740,663.364 162.276,650.737 ZM589.081,973.452 C609.723,973.452 630.059,972.112 650.009,969.524 C651.390,967.737 652.759,965.940 654.109,964.128 C617.082,896.648 595.999,819.199 595.999,736.906 C595.999,728.562 596.227,720.270 596.655,712.031 C576.566,689.912 559.585,664.914 546.390,637.744 C520.806,674.525 485.232,703.836 443.638,721.693 C443.441,726.743 443.306,731.809 443.306,736.906 C443.306,823.713 472.060,903.908 520.511,968.465 C542.902,971.745 565.796,973.452 589.081,973.452 ZM524.018,973.035 C541.871,996.102 562.246,1017.116 584.766,1035.610 C607.611,1017.511 628.318,996.825 646.485,974.022 C627.662,976.300 608.507,977.481 589.081,977.481 C567.014,977.481 545.295,975.962 524.018,973.035 ZM656.752,960.579 C691.220,913.186 715.041,857.553 724.672,797.233 C676.966,780.387 634.510,752.304 600.489,716.157 C600.189,723.037 600.026,729.953 600.026,736.906 C600.026,817.840 620.588,894.053 656.752,960.579 ZM655.672,968.756 C655.984,968.711 656.294,968.663 656.605,968.618 C656.488,968.411 656.368,968.206 656.252,967.998 C656.061,968.252 655.864,968.502 655.672,968.756 ZM1024.398,740.984 C1030.597,735.907 1036.592,730.588 1042.378,725.053 C1036.226,724.344 1030.148,723.392 1024.155,722.196 C1024.319,727.082 1024.430,731.981 1024.430,736.906 C1024.430,738.268 1024.411,739.625 1024.398,740.984 ZM1062.449,430.162 C1061.645,430.809 1060.857,431.475 1060.059,432.128 C1063.291,454.521 1064.973,477.410 1064.973,500.686 C1064.973,570.719 1049.821,637.273 1022.635,697.234 C1023.259,704.133 1023.713,711.080 1024.014,718.066 C1031.252,719.544 1038.619,720.665 1046.093,721.414 C1101.568,666.557 1136.551,590.954 1138.303,507.288 C1116.733,478.174 1091.177,452.192 1062.449,430.162 ZM1138.386,500.754 C1138.386,500.732 1138.387,500.709 1138.387,500.686 C1138.387,462.555 1131.470,426.017 1118.856,392.243 C1100.147,402.584 1082.366,414.410 1065.671,427.561 C1093.009,448.634 1117.460,473.279 1138.386,500.754 ZM1009.764,714.644 C1012.805,708.668 1015.744,702.632 1018.534,696.513 C1013.175,638.896 996.473,584.530 970.702,535.674 C947.009,575.376 930.104,619.589 921.590,666.691 C946.600,688.902 976.640,705.538 1009.764,714.644 ZM920.774,671.353 C917.186,692.677 915.306,714.575 915.306,736.906 C915.306,757.417 916.896,777.561 919.934,797.232 C938.453,791.500 956.227,784.060 973.090,775.116 C985.966,757.080 997.600,738.100 1007.890,718.309 C975.300,709.219 945.656,692.971 920.774,671.353 ZM1013.744,715.706 C1015.796,716.229 1017.861,716.717 1019.936,717.182 C1019.745,712.980 1019.512,708.790 1019.203,704.620 C1017.436,708.346 1015.604,712.035 1013.744,715.706 ZM968.487,531.501 C942.764,484.001 908.401,441.857 867.543,407.168 C854.293,435.603 846.876,467.291 846.876,500.686 C846.876,564.972 874.320,622.949 918.076,663.503 C926.966,616.007 944.307,571.458 968.487,531.501 ZM970.904,527.559 C993.774,490.739 1022.497,457.938 1055.741,430.434 C1055.442,428.430 1055.130,426.430 1054.806,424.435 C1009.450,391.395 956.657,368.018 899.463,357.333 C887.616,371.317 877.463,386.782 869.330,403.415 C910.336,438.062 944.894,480.137 970.904,527.559 ZM973.126,531.651 C998.727,579.532 1015.668,632.726 1021.832,689.121 C1046.985,631.359 1060.946,567.626 1060.946,500.686 C1060.946,478.443 1059.403,456.554 1056.422,435.120 C1023.728,462.511 995.528,495.109 973.126,531.651 ZM1020.118,721.345 C1017.347,720.739 1014.590,720.096 1011.858,719.388 C1002.640,737.188 992.344,754.341 981.045,770.752 C994.832,762.914 1007.967,754.054 1020.338,744.262 C1020.379,741.815 1020.404,739.363 1020.404,736.906 C1020.404,731.697 1020.304,726.510 1020.118,721.345 ZM975.773,778.253 C961.249,798.506 945.201,817.593 927.763,835.308 C937.213,871.907 951.797,906.459 970.702,938.139 C1000.588,881.481 1018.272,817.410 1020.218,749.455 C1006.283,760.249 991.421,769.895 975.773,778.253 ZM967.805,782.360 C952.714,789.872 936.945,796.210 920.605,801.236 C922.250,811.197 924.229,821.048 926.608,830.744 C941.390,815.573 955.148,799.400 967.805,782.360 ZM916.686,802.407 C888.752,810.598 859.224,815.012 828.683,815.012 C793.679,815.012 759.996,809.234 728.531,798.587 C718.616,859.910 694.176,916.415 658.884,964.450 C659.542,965.635 660.214,966.811 660.883,967.989 C762.638,952.358 853.789,904.039 923.293,834.106 C920.671,823.696 918.469,813.122 916.686,802.407 ZM578.337,443.629 C556.287,462.550 536.392,483.921 519.067,507.311 C519.982,550.853 529.892,592.214 547.008,629.606 C571.213,592.511 585.305,548.220 585.305,500.686 C585.305,481.018 582.878,461.909 578.337,443.629 ZM581.499,435.666 C581.039,435.309 580.570,434.962 580.108,434.607 C580.280,435.210 580.441,435.817 580.609,436.421 C580.908,436.173 581.199,435.914 581.499,435.666 ZM534.264,404.407 C524.361,434.732 518.983,467.089 518.983,500.686 C518.983,500.713 518.984,500.739 518.984,500.765 C536.140,478.236 555.662,457.607 577.216,439.298 C576.424,436.354 575.594,433.425 574.692,430.527 C561.813,420.999 548.308,412.275 534.264,404.407 ZM572.524,423.936 C566.153,405.402 557.527,387.915 547.002,371.778 C542.732,381.109 538.906,390.683 535.561,400.480 C548.344,407.609 560.685,415.442 572.524,423.936 ZM515.206,512.646 C473.565,570.903 447.664,641.180 443.830,717.209 C484.678,699.271 519.510,670.057 544.395,633.526 C527.118,596.560 516.823,555.700 515.206,512.646 ZM589.331,500.686 C589.331,549.924 574.469,595.745 549.010,633.895 C561.593,660.308 577.800,684.663 596.975,706.328 C601.511,635.435 621.703,568.741 654.109,509.684 C634.186,482.946 610.873,458.885 584.767,438.202 C583.757,439.031 582.774,439.889 581.774,440.728 C586.707,459.900 589.331,479.992 589.331,500.686 ZM600.771,710.547 C634.621,747.421 677.243,776.078 725.289,793.178 C728.018,774.811 729.448,756.024 729.448,736.906 C729.448,653.382 702.450,576.067 656.752,513.233 C624.541,572.488 604.722,639.431 600.771,710.547 ZM349.479,736.968 C381.430,736.968 411.911,730.556 439.725,718.969 C443.332,639.529 470.779,566.231 515.025,506.050 C514.995,504.264 514.957,502.480 514.957,500.686 C514.957,466.379 520.490,433.347 530.677,402.416 C485.918,377.970 435.750,362.268 382.456,357.655 C273.137,417.683 192.456,523.780 166.597,649.687 C209.875,702.910 275.777,736.968 349.479,736.968 ZM491.102,311.879 C451.638,282.088 402.583,264.405 349.479,264.405 C246.258,264.405 158.325,331.195 126.443,423.902 C189.357,378.772 266.374,352.176 349.479,352.176 C360.292,352.176 370.996,352.650 381.586,353.533 C415.616,334.971 452.381,320.836 491.102,311.879 ZM388.891,354.190 C440.243,359.459 488.617,374.927 531.985,398.511 C535.588,388.037 539.736,377.817 544.382,367.874 C530.761,347.868 514.185,330.036 495.240,315.070 C457.731,323.441 422.042,336.712 388.891,354.190 ZM546.375,363.659 C556.588,342.622 569.083,322.898 583.523,304.794 C555.036,305.157 527.210,308.310 500.296,313.976 C517.886,328.267 533.405,345.010 546.375,363.659 ZM548.990,367.519 C561.351,386.046 571.240,406.361 578.113,428.021 C580.337,429.678 582.549,431.350 584.736,433.053 C639.754,388.627 707.022,358.858 780.599,349.739 C722.865,320.954 657.826,304.757 589.081,304.757 C588.959,304.757 588.837,304.760 588.715,304.760 C573.104,323.918 559.728,344.970 548.990,367.519 ZM587.981,435.607 C613.597,456.004 636.543,479.621 656.252,505.814 C689.619,446.329 735.444,394.759 790.161,354.683 C789.135,354.138 788.114,353.585 787.082,353.049 C712.255,361.133 643.787,390.764 587.981,435.607 ZM658.884,509.362 C705.737,573.132 733.475,651.824 733.475,736.906 C733.475,756.494 731.987,775.738 729.152,794.545 C760.403,805.199 793.881,810.984 828.683,810.984 C859.005,810.984 888.315,806.575 916.030,798.398 C912.905,778.353 911.279,757.817 911.279,736.906 C911.279,713.477 913.315,690.516 917.216,668.189 C871.573,626.828 842.849,567.057 842.849,500.686 C842.849,466.295 850.573,433.681 864.354,404.476 C842.629,386.387 819.115,370.385 794.112,356.792 C738.679,397.041 692.356,449.145 658.884,509.362 ZM866.152,400.760 C874.010,384.868 883.672,370.027 894.883,356.515 C873.368,352.765 851.253,350.792 828.683,350.792 C819.405,350.792 810.213,351.157 801.099,351.814 C799.972,352.601 798.846,353.391 797.726,354.188 C822.036,367.545 844.933,383.171 866.152,400.760 ZM828.683,346.764 C852.301,346.764 875.432,348.884 897.900,352.942 C926.539,319.832 964.615,295.135 1007.887,283.064 C1006.031,279.494 1004.147,275.941 1002.204,272.425 C930.970,282.552 864.836,308.783 807.624,347.337 C814.597,346.960 821.618,346.764 828.683,346.764 ZM902.503,353.819 C958.024,364.545 1009.388,387.115 1053.855,418.804 C1045.677,372.071 1030.607,327.691 1009.768,286.727 C967.713,298.288 930.626,321.987 902.503,353.819 ZM1058.524,422.183 C1059.812,423.130 1061.106,424.071 1062.382,425.034 C1079.627,411.377 1098.034,399.133 1117.416,388.454 C1101.433,347.322 1076.918,310.445 1046.086,279.959 C1035.047,281.065 1024.247,282.990 1013.742,285.667 C1035.163,327.959 1050.498,373.845 1058.524,422.183 ZM1120.987,386.518 C1154.243,368.639 1190.320,355.372 1228.362,347.577 C1188.018,305.253 1131.173,278.847 1068.289,278.847 C1062.585,278.847 1056.931,279.065 1051.334,279.492 C1081.315,309.783 1105.214,346.121 1120.987,386.518 ZM1122.430,390.314 C1135.333,424.672 1142.413,461.864 1142.413,500.686 C1142.413,502.460 1142.375,504.225 1142.346,505.993 C1177.195,553.372 1201.606,608.898 1212.185,669.141 C1259.600,628.423 1289.699,568.012 1289.699,500.686 C1289.699,443.074 1267.658,390.524 1231.589,351.044 C1192.870,358.722 1156.177,372.114 1122.430,390.314 ZM1142.164,512.650 C1139.105,594.095 1104.960,667.684 1051.315,721.879 C1056.918,722.307 1062.578,722.525 1068.289,722.525 C1121.503,722.525 1170.389,703.613 1208.614,672.151 C1198.665,613.443 1175.446,559.207 1142.164,512.650 ZM1068.289,726.553 C1061.309,726.553 1054.406,726.217 1047.586,725.592 C1040.172,732.837 1032.417,739.733 1024.320,746.222 C1022.833,816.917 1004.477,883.524 973.126,942.161 C996.894,980.932 1027.185,1015.268 1062.449,1043.650 C1154.543,973.029 1214.061,861.809 1214.061,736.906 C1214.061,716.434 1212.450,696.334 1209.368,676.718 C1170.718,707.875 1121.643,726.553 1068.289,726.553 ZM801.099,1121.998 C810.213,1122.655 819.405,1123.020 828.683,1123.020 C915.024,1123.020 994.823,1094.424 1059.144,1046.190 C1024.448,1018.125 994.554,984.329 970.904,946.253 C930.874,1019.237 870.612,1079.578 797.726,1119.624 C798.846,1120.421 799.972,1121.211 801.099,1121.998 ZM968.487,942.312 C949.177,910.402 934.223,875.567 924.453,838.640 C854.923,907.906 764.210,955.844 663.025,971.727 C696.134,1028.866 740.926,1078.402 794.112,1117.020 C867.755,1076.985 928.531,1016.095 968.487,942.312 ZM790.161,1119.129 C736.792,1080.040 691.888,1030.013 658.746,972.376 C656.565,972.698 654.379,973.005 652.188,973.297 C633.411,997.382 611.858,1019.194 587.981,1038.205 C643.787,1083.048 712.255,1112.679 787.082,1120.764 C788.114,1120.227 789.135,1119.674 790.161,1119.129 ZM589.081,1169.055 C657.826,1169.055 722.865,1152.858 780.599,1124.074 C707.022,1114.955 639.754,1085.185 584.736,1040.759 C529.469,1083.810 462.207,1112.099 388.891,1119.622 C448.751,1151.181 516.871,1169.055 589.081,1169.055 ZM382.456,1116.157 C457.000,1109.705 525.443,1081.580 581.499,1038.146 C557.962,1018.724 536.754,996.573 518.310,972.213 C359.259,948.354 225.698,845.349 158.958,704.617 C158.168,715.279 157.756,726.045 157.756,736.906 C157.756,900.238 248.669,1042.695 382.456,1116.157 ZM-30.493,736.906 C-30.493,946.823 139.960,1117.607 349.479,1117.607 C358.123,1117.607 366.694,1117.288 375.196,1116.716 C243.083,1041.742 153.730,899.586 153.730,736.906 C153.730,723.546 154.366,710.335 155.549,697.279 C135.970,654.111 122.638,607.523 116.700,558.681 C112.085,540.101 109.624,520.678 109.624,500.686 C109.624,480.672 112.084,461.224 116.708,442.624 C116.996,440.259 117.299,437.898 117.622,435.543 C27.607,505.224 -30.493,614.381 -30.493,736.906 ZM120.643,443.631 C118.387,462.339 117.216,481.378 117.216,500.686 C117.216,520.065 118.395,539.172 120.668,557.946 C128.739,590.300 143.476,620.039 163.340,645.595 C189.720,522.000 268.509,417.641 375.196,357.096 C366.694,356.524 358.123,356.205 349.479,356.205 C265.249,356.205 187.346,383.824 124.279,430.474 C122.932,434.803 121.744,439.200 120.643,443.631 ZM589.081,27.920 C357.333,27.920 164.069,196.174 124.590,417.162 C158.536,325.710 246.526,260.376 349.479,260.376 C404.706,260.376 455.625,279.184 496.214,310.730 C525.428,304.345 555.726,300.906 586.784,300.744 C644.374,230.926 731.432,186.360 828.683,186.360 C878.619,186.360 925.856,198.130 967.808,219.014 C881.729,103.131 744.013,27.920 589.081,27.920 ZM973.074,226.248 C929.934,203.371 880.797,190.389 828.683,190.389 C733.877,190.389 648.901,233.305 592.046,300.751 C662.511,301.225 729.055,318.548 787.850,348.906 C791.795,348.492 795.759,348.144 799.737,347.848 C858.312,307.137 926.486,279.370 1000.100,268.657 C991.834,254.017 982.800,239.869 973.074,226.248 ZM981.076,230.637 C989.392,242.717 997.178,255.190 1004.377,268.037 C1012.914,266.875 1021.526,265.955 1030.200,265.257 C1015.025,252.200 998.579,240.592 981.076,230.637 ZM1034.431,268.976 C1025.033,269.653 1015.707,270.595 1006.469,271.821 C1008.312,275.182 1010.103,278.574 1011.867,281.982 C1021.782,279.413 1031.964,277.520 1042.353,276.322 C1039.751,273.833 1037.119,271.375 1034.431,268.976 ZM1068.289,267.746 C1058.806,267.746 1049.392,268.046 1040.047,268.606 C1042.611,270.951 1045.123,273.351 1047.607,275.779 C1054.420,275.155 1061.316,274.819 1068.289,274.819 C1133.230,274.819 1191.834,302.483 1233.009,346.655 C1257.264,341.989 1282.296,339.540 1307.891,339.540 C1310.992,339.540 1314.083,339.580 1317.167,339.652 C1245.022,294.116 1159.672,267.746 1068.289,267.746 ZM1323.802,343.918 C1318.522,343.706 1313.222,343.568 1307.891,343.568 C1283.412,343.568 1259.455,345.837 1236.207,350.155 C1271.951,390.139 1293.725,442.909 1293.725,500.686 C1293.725,570.095 1262.307,632.280 1212.983,673.745 C1216.339,694.308 1218.087,715.406 1218.087,736.906 C1218.087,862.760 1158.283,974.864 1065.671,1046.251 C1132.434,1098.843 1216.572,1130.244 1307.891,1130.244 C1313.222,1130.244 1318.522,1130.106 1323.802,1129.894 C1451.800,1046.067 1536.548,901.217 1536.548,736.906 C1536.548,572.595 1451.800,427.746 1323.802,343.918 ZM1331.673,344.311 C1457.597,429.388 1540.575,573.619 1540.575,736.906 C1540.575,900.193 1457.597,1044.424 1331.672,1129.501 C1537.111,1117.139 1700.476,945.791 1700.476,736.906 C1700.476,528.021 1537.111,356.673 1331.673,344.311 Z" class="cls-1"/>
</svg>
